<?xml version="1.0" ?><svg data-name="Capa 1" id="Capa_1" viewBox="0 0 20 19.84" xmlns="http://www.w3.org/2000/svg"><path d="M12.9,2.76H7.09A1.72,1.72,0,0,0,5.37,4.48V6.55a.37.37,0,0,0,.37.38.38.38,0,0,0,.37-.38V4.48a1,1,0,0,1,1-1h.65A.57.57,0,0,0,8.3,4h3.39a.57.57,0,0,0,.56-.53h.65a1,1,0,0,1,1,1V6.55a.38.38,0,0,0,.37.38.37.37,0,0,0,.37-.38V4.48A1.72,1.72,0,0,0,12.9,2.76Z"/><path d="M14.25,13.41a.38.38,0,0,0-.37.38v1.57a1,1,0,0,1-1,1H7.09a1,1,0,0,1-1-1V13.79a.38.38,0,0,0-.37-.38.37.37,0,0,0-.37.38v1.57a1.72,1.72,0,0,0,1.72,1.72H12.9a1.72,1.72,0,0,0,1.72-1.72V13.79A.37.37,0,0,0,14.25,13.41Z"/><path d="M8.64,15.44A.36.36,0,0,0,9,15.8h2a.36.36,0,0,0,0-.72H9A.36.36,0,0,0,8.64,15.44Z"/><path d="M8,7.79a.38.38,0,0,0-.34-.22h0a.38.38,0,0,0-.34.22L5.4,12.09a.38.38,0,0,0,.18.5.45.45,0,0,0,.16,0,.37.37,0,0,0,.34-.22l.57-1.28H8.71l.57,1.26a.39.39,0,0,0,.5.19.37.37,0,0,0,.18-.5ZM7,10.37l.68-1.52.7,1.52Z"/><path d="M14.57,9.22A1.83,1.83,0,0,0,12.74,7.4h-1.8a.36.36,0,0,0-.35.48s0,0,0,.06v4.27a.37.37,0,0,0,.74,0V11.05h1.42l.19,0,1,1.39a.38.38,0,0,0,.31.16.33.33,0,0,0,.21-.07.38.38,0,0,0,.1-.52l-.84-1.2A1.84,1.84,0,0,0,14.57,9.22ZM12.74,10.3H11.32V8.14h1.42a1.08,1.08,0,0,1,0,2.16Z"/></svg>