<svg width="2433" height="2500" viewBox="0 0 2433 2500" fill="none" xmlns="http://www.w3.org/2000/svg">
<path d="M1585.94 1247.26L2022.26 493.842L2233.09 1247.26L2022.25 2000.51L1585.94 1247.26ZM1373.28 1369.62L1809.66 2122.92L1049.67 1928.22L500.628 1369.62H1373.28ZM1809.56 371.394L1373.28 1124.82H500.628L1049.67 566.176L1809.56 371.394V371.394ZM2432.44 990.858L2166.25 0.570312L1172.72 265.967L1025.64 524.54L727.21 522.401L0 1247.33L727.21 1972.09H727.239L1025.55 1969.88L1172.83 2228.46L2166.25 2493.81L2432.43 1503.71L2281.26 1247.27L2432.43 990.877L2432.44 990.858Z" fill="black"/>
</svg>
